<?xml version="1.0" standalone="no"?>
<!DOCTYPE svg PUBLIC "-//W3C//DTD SVG 20010904//EN"
 "http://www.w3.org/TR/2001/REC-SVG-20010904/DTD/svg10.dtd">
<svg version="1.0" xmlns="http://www.w3.org/2000/svg"
 width="440.000000pt" height="440.000000pt" viewBox="0 0 440.000000 440.000000"
 preserveAspectRatio="xMidYMid meet">
<metadata>
Created by potrace 1.11, written by Peter Selinger 2001-2013
</metadata>
<g transform="translate(0.000000,440.000000) scale(0.100000,-0.100000)"
fill="#000000" stroke="none">
<path d="M2589 3936 c-45 -16 -117 -56 -434 -239 l-250 -145 0 -382 0 -382
165 -97 165 -97 3 -291 2 -291 55 -31 54 -31 185 106 c235 134 295 151 414
120 43 -12 172 -75 242 -118 12 -8 47 8 158 73 l142 84 -3 669 -2 669 -240
138 c-312 181 -401 230 -444 245 -46 17 -166 17 -212 0z"/>
<path d="M1350 2858 c-19 -5 -40 -16 -46 -23 -6 -8 -13 -12 -16 -10 -3 3 -22
-6 -42 -20 -20 -14 -40 -25 -43 -25 -3 0 -57 -31 -119 -70 -63 -38 -116 -70
-118 -70 -8 0 -129 -72 -154 -91 l-22 -17 36 -21 c19 -12 40 -18 46 -15 6 4 8
3 5 -2 -3 -6 15 -21 41 -35 26 -14 95 -54 155 -88 59 -34 112 -59 119 -55 6 4
8 3 5 -3 -3 -5 13 -20 36 -33 23 -13 44 -27 47 -30 11 -15 51 -30 62 -24 6 4
8 3 5 -3 -9 -15 84 -33 125 -24 53 12 256 125 241 133 -4 3 -2 3 5 1 7 -1 23
2 34 8 17 9 18 13 7 21 -10 7 -8 8 7 4 14 -4 41 7 84 35 35 22 95 57 133 76
64 33 69 37 52 49 -11 8 -13 14 -6 14 7 0 9 5 5 13 -4 7 -3 9 2 4 5 -5 9 -14
9 -20 0 -16 22 -20 28 -4 4 10 -8 21 -36 33 -23 10 -48 25 -56 32 -7 7 -41 27
-75 44 -33 17 -88 48 -122 69 -34 22 -65 39 -70 39 -5 0 -3 -4 4 -9 11 -7 11
-9 -1 -14 -11 -4 -15 0 -12 13 2 13 -5 24 -23 33 -15 8 -61 32 -102 54 -64 34
-85 40 -135 41 -33 0 -76 -4 -95 -10z m610 -262 c-1 -5 4 -13 12 -18 11 -8 11
-9 0 -6 -8 2 -13 7 -12 12 1 5 -4 13 -12 18 -11 8 -11 9 0 6 8 -2 13 -7 12
-12z m-860 -220 c-7 -7 -13 -7 -20 0 -6 6 -3 10 10 10 13 0 16 -4 10 -10z
m345 -166 c3 -6 -1 -7 -9 -4 -18 7 -21 14 -7 14 6 0 13 -4 16 -10z"/>
<path d="M770 2267 l0 -122 46 -28 c25 -15 50 -25 55 -21 5 3 8 0 7 -7 -2 -6
25 -26 59 -44 34 -18 77 -43 94 -56 18 -13 29 -18 25 -11 -5 8 -2 10 8 6 9 -3
13 -11 9 -17 -4 -6 0 -8 11 -4 9 4 15 3 11 -2 -7 -12 54 -43 68 -34 5 3 7 2 4
-4 -9 -14 37 -33 54 -22 23 14 35 10 14 -5 -18 -13 -17 -15 15 -35 19 -12 54
-30 77 -42 46 -22 120 -38 110 -23 -3 6 6 10 21 11 24 2 24 1 7 -7 -20 -8 -20
-9 1 -9 23 -1 139 52 160 74 16 15 2 30 -18 20 -7 -4 -4 1 6 9 11 9 25 16 30
16 6 0 4 -4 -4 -10 -12 -8 -12 -10 2 -15 9 -4 33 4 56 19 22 13 56 32 76 40
20 8 36 18 36 21 0 3 -5 3 -12 -1 -7 -4 -8 -3 -4 4 4 7 15 12 25 12 10 0 29 8
42 18 13 10 39 24 56 31 18 7 30 18 26 24 -3 5 -1 7 5 3 6 -3 47 15 91 41 l81
47 0 123 0 122 -28 -12 c-25 -11 -132 -72 -275 -158 -27 -16 -52 -29 -57 -29
-5 0 -10 -3 -12 -7 -2 -5 -29 -21 -61 -37 -43 -21 -55 -32 -45 -38 10 -7 8 -8
-4 -4 -10 3 -39 -4 -65 -16 -31 -14 -64 -21 -92 -19 -26 2 -41 -1 -37 -7 9
-15 -146 22 -170 40 -6 5 -20 6 -30 2 -15 -5 -16 -4 -5 4 12 9 9 13 -15 23
-16 7 -54 30 -84 50 -77 51 -122 74 -140 70 -8 -2 -12 0 -8 5 9 8 -194 134
-217 134 -3 0 -5 -55 -5 -123z m1290 63 c8 -5 11 -10 5 -10 -5 0 -17 5 -25 10
-8 5 -10 10 -5 10 6 0 17 -5 25 -10z m-1083 -86 c-3 -3 -12 -4 -19 -1 -8 3 -5
6 6 6 11 1 17 -2 13 -5z m101 -33 c11 -7 10 -9 -3 -15 -9 -3 -13 -11 -9 -17 4
-8 3 -9 -5 -5 -9 6 -9 11 1 24 11 13 10 15 -5 9 -11 -4 -16 -3 -12 3 7 12 16
12 33 1z m36 -29 c3 -5 -1 -9 -9 -9 -8 0 -12 4 -9 9 3 4 7 8 9 8 2 0 6 -4 9
-8z m936 -58 c0 -2 -9 0 -20 6 -11 6 -20 13 -20 16 0 2 9 0 20 -6 11 -6 20
-13 20 -16z m-365 -4 c-3 -5 -12 -10 -18 -10 -7 0 -6 4 3 10 19 12 23 12 15 0z
m-740 -60 c3 -6 -1 -7 -9 -4 -18 7 -21 14 -7 14 6 0 13 -4 16 -10z"/>
<path d="M771 1864 l-2 -123 54 -34 c29 -19 63 -38 75 -41 12 -4 22 -12 22
-17 0 -6 9 -5 23 2 18 9 20 9 10 -1 -12 -13 18 -37 115 -90 20 -12 64 -36 97
-55 67 -39 84 -43 64 -17 -11 15 -11 15 1 4 8 -7 15 -18 15 -25 0 -7 8 -11 18
-11 9 1 14 -2 12 -7 -9 -13 85 -56 140 -63 38 -5 46 -4 35 4 -12 9 -10 11 11
6 30 -6 93 9 112 28 7 7 23 17 35 20 12 4 22 12 22 17 0 6 4 8 9 4 5 -3 12 -1
16 5 3 5 25 19 48 30 23 12 63 33 88 48 25 15 96 56 157 91 l112 64 0 41 c0
35 5 44 30 61 30 20 31 22 29 98 -1 42 -4 77 -7 77 -4 0 -113 -60 -201 -112
-25 -15 -64 -37 -86 -49 -55 -30 -155 -89 -185 -109 -24 -16 -72 -35 -121 -46
-44 -11 -137 -6 -191 10 -29 8 -86 36 -126 61 -41 25 -77 45 -82 45 -4 0 -13
6 -20 14 -6 8 -19 12 -27 9 -11 -4 -14 -2 -9 5 4 7 2 12 -5 12 -7 0 -20 6 -28
14 -9 7 -37 25 -62 39 -83 45 -94 52 -100 61 -4 5 -12 5 -19 1 -9 -5 -11 -4
-6 3 4 7 -9 19 -33 30 l-39 19 -1 -123z m1259 -54 c0 -5 -2 -10 -4 -10 -3 0
-8 5 -11 10 -3 6 -1 10 4 10 6 0 11 -4 11 -10z m-940 -15 c0 -2 -10 -9 -22
-15 -22 -11 -22 -10 -4 4 21 17 26 19 26 11z m844 -143 c3 -5 -1 -9 -9 -9 -8
0 -12 4 -9 9 3 4 7 8 9 8 2 0 6 -4 9 -8z"/>
</g>
</svg>
